<?xml version="1.0" standalone="no"?><!DOCTYPE svg PUBLIC "-//W3C//DTD SVG 1.1//EN" "http://www.w3.org/Graphics/SVG/1.1/DTD/svg11.dtd"><svg t="1556085451223" class="icon" style="" viewBox="0 0 1024 1024" version="1.1" xmlns="http://www.w3.org/2000/svg" p-id="1643" xmlns:xlink="http://www.w3.org/1999/xlink" width="200" height="200"><defs><style type="text/css"></style></defs><path d="M992 512c0 265.100625-214.899375 480-480 480S32 777.100625 32 512 246.899375 32 512 32s480 214.899375 480 480z m0 0" fill="#017296" p-id="1644"></path><path d="M541.685 330.125v-20.625c0-2.071875 1.678125-3.75 3.75-3.75H770.75c2.071875 0 3.75 1.678125 3.75 3.75v20.625c0 2.071875-1.678125 3.75-3.75 3.75H545.435c-2.06625 0-3.75-1.678125-3.75-3.75zM827 718.25H545.435c-2.071875 0-3.75 1.678125-3.75 3.75v20.625c0 2.071875 1.678125 3.75 3.75 3.75H827c2.071875 0 3.75-1.678125 3.75-3.75v-20.625c0-2.071875-1.678125-3.75-3.75-3.75z m-281.565-28.125H770.75c2.071875 0 3.75-1.678125 3.75-3.75v-20.625c0-2.071875-1.678125-3.75-3.75-3.75H545.435c-2.071875 0-3.75 1.678125-3.75 3.75v20.625c0 2.071875 1.68375 3.75 3.75 3.75zM827 605.75H545.435c-2.071875 0-3.75 1.678125-3.75 3.75v20.625c0 2.071875 1.678125 3.75 3.75 3.75H827c2.071875 0 3.75-1.678125 3.75-3.75v-20.625c0-2.071875-1.678125-3.75-3.75-3.75z m0-243.75H545.435c-2.071875 0-3.75 1.678125-3.75 3.75v20.625c0 2.071875 1.678125 3.75 3.75 3.75H827c2.071875 0 3.75-1.678125 3.75-3.75v-20.625c0-2.071875-1.678125-3.75-3.75-3.75z m0-112.5H545.435c-2.071875 0-3.75 1.678125-3.75 3.75v20.625c0 2.071875 1.678125 3.75 3.75 3.75H827c2.071875 0 3.75-1.678125 3.75-3.75v-20.625c0-2.071875-1.678125-3.75-3.75-3.75z m0 0" fill="#6CAAC9" p-id="1645"></path><path d="M315.125 554.1875c-74.956875 0-135.9375 60.980625-135.9375 135.9375s60.980625 135.9375 135.9375 135.9375 135.9375-60.980625 135.9375-135.9375-60.980625-135.9375-135.9375-135.9375z m0 243.75c-59.450625 0-107.8125-48.361875-107.8125-107.8125s48.361875-107.8125 107.8125-107.8125 107.8125 48.361875 107.8125 107.8125-48.361875 107.8125-107.8125 107.8125z m0-328.125c74.956875 0 135.9375-60.980625 135.9375-135.9375S390.081875 197.9375 315.125 197.9375 179.1875 258.918125 179.1875 333.875s60.980625 135.9375 135.9375 135.9375z m0-243.75c59.450625 0 107.8125 48.361875 107.8125 107.8125s-48.361875 107.8125-107.8125 107.8125-107.8125-48.361875-107.8125-107.8125 48.361875-107.8125 107.8125-107.8125z m0 0" fill="#88B9D3" p-id="1646"></path><path d="M947.13125 182.93l-53.034375 53.034375c-7.31625 7.32375-19.18875 7.32375-26.5125 0l-79.54875-79.54875c-7.32375-7.32375-7.32375-19.19625 0-26.5125l53.034375-53.034375c7.31625-7.325625 19.18875-7.325625 26.5125 0l79.54875 79.546875c7.325625 7.325625 7.325625 19.198125 0 26.514375z m0 0" fill="#024C67" p-id="1647"></path><path d="M514.240625 208.40375L324.575 398.06375a8.265 8.265 0 0 1-11.69625 0l-82.726875-82.704375a4.138125 4.138125 0 0 1 0-5.844375l23.3925-23.4a4.145625 4.145625 0 0 1 5.851875 0l56.39625 56.394375a4.125 4.125 0 0 0 5.84625 0l163.359375-163.35c1.610625-1.6125 4.231875-1.6125 5.844375 0L514.23125 202.55c1.62 1.618125 1.62 4.24125 0.0075 5.851875zM297.576875 673.39625a37.468125 37.468125 0 0 0-10.9875 26.5125v33.75c0 2.07375 1.678125 3.75 3.75 3.75h33.75c9.946875 0 19.48125-3.946875 26.5125-10.985625l42.050625-42.046875-53.02875-53.02875z m0 0" fill="#FDED32" p-id="1648"></path><path d="M933.875 196.18625L474.910625 655.1525A37.4775 37.4775 0 0 1 455.75 665.405l-53.64375 10.730625a28.0875 28.0875 0 0 1-25.378125-7.68375l-21.1875-21.1875a28.0875 28.0875 0 0 1-7.67625-25.3725L358.5875 568.25a37.50375 37.50375 0 0 1 10.2525-19.160625L827.80625 90.125z m0 0" fill="#FC9302" p-id="1649"></path><path d="M933.875 196.18625L474.910625 655.1525A37.4775 37.4775 0 0 1 455.75 665.405l-53.64375 10.730625a28.0875 28.0875 0 0 1-25.378125-7.68375l13.681875-68.3775a37.471875 37.471875 0 0 1 10.25625-19.168125l458.9625-458.964375z m0 0" fill="#FDBF43" p-id="1650"></path><path d="M474.910625 655.1525l-29.22375 29.22375c-14.641875 14.6475-38.386875 14.6475-53.034375 0l-26.514375 26.52-53.034375-53.034375 26.52-26.5125c-14.6475-14.649375-14.6475-38.394375 0-53.03625l29.22375-29.22375z m0 0" fill="#024C67" p-id="1651"></path></svg>